<svg width="24" height="24" viewBox="0 0 24 24" fill="none" xmlns="http://www.w3.org/2000/svg">
<path d="M15.3074 17.3945C15.5253 17.2249 15.5644 16.9108 15.3948 16.6929C15.2252 16.475 14.911 16.4358 14.6931 16.6055L15.3074 17.3945ZM9.30738 16.6055C9.08948 16.4358 8.77533 16.475 8.6057 16.6929C8.43607 16.9108 8.4752 17.2249 8.69311 17.3945L9.30738 16.6055ZM2.35163 13.2135L1.85743 13.2894L1.85744 13.2894L2.35163 13.2135ZM2.25641 8.74938L2.71633 8.94554L2.71633 8.94554L2.25641 8.74938ZM5.58138 5.64106L5.28842 5.23588L5.28842 5.23588L5.58138 5.64106ZM7.02123 4.6L7.3142 5.00518L7.3142 5.00518L7.02123 4.6ZM16.9793 4.6L17.2722 4.19482L17.2722 4.19482L16.9793 4.6ZM18.4191 5.64106L18.1261 6.04624L18.1261 6.04625L18.4191 5.64106ZM21.7441 8.74938L21.2841 8.94554L21.2842 8.94554L21.7441 8.74938ZM21.6489 13.2135L21.1547 13.1376V13.1376L21.6489 13.2135ZM21.3479 15.1724L21.8421 15.2484L21.8421 15.2483L21.3479 15.1724ZM2.65267 15.1724L3.14687 15.0965L3.14687 15.0965L2.65267 15.1724ZM14.6931 16.6055C13.983 17.1583 13.0412 17.5 12.0003 17.5V18.5C13.2597 18.5 14.4185 18.0865 15.3074 17.3945L14.6931 16.6055ZM12.0003 17.5C10.9592 17.5 10.0175 17.1583 9.30738 16.6055L8.69311 17.3945C9.58203 18.0865 10.7407 18.5 12.0003 18.5V17.5ZM2.84583 13.1376C2.66775 11.9787 2.5406 11.1471 2.50819 10.4776C2.47636 9.82006 2.5391 9.36105 2.71633 8.94554L1.7965 8.55322C1.53942 9.15596 1.47326 9.78036 1.50936 10.526C1.54488 11.2596 1.6825 12.151 1.85743 13.2894L2.84583 13.1376ZM2.71633 8.94554C2.89395 8.52908 3.18585 8.15803 3.69094 7.70989C4.204 7.25468 4.90272 6.74876 5.87435 6.04624L5.28842 5.23588C4.33294 5.92673 3.58633 6.46584 3.02726 6.96188C2.4602 7.465 2.05318 7.95142 1.7965 8.55322L2.71633 8.94554ZM5.87435 6.04624L7.3142 5.00518L6.72827 4.19482L5.28842 5.23588L5.87435 6.04624ZM7.3142 5.00518C8.52224 4.13172 9.39443 3.50205 10.1358 3.08604C10.8655 2.67652 11.4251 2.5 12.0003 2.5V1.5C11.1924 1.5 10.461 1.75681 9.64639 2.21396C8.8433 2.66462 7.91753 3.33495 6.72827 4.19482L7.3142 5.00518ZM12.0003 2.5C12.5754 2.5 13.1349 2.67652 13.8647 3.08604C14.6061 3.50205 15.4783 4.13173 16.6863 5.00518L17.2722 4.19482C16.083 3.33494 15.1572 2.66462 14.3541 2.21396C13.5394 1.75681 12.8081 1.5 12.0003 1.5V2.5ZM16.6863 5.00518L18.1261 6.04624L18.712 5.23588L17.2722 4.19482L16.6863 5.00518ZM18.1261 6.04625C19.0978 6.74876 19.7965 7.25468 20.3096 7.70989C20.8146 8.15802 21.1065 8.52908 21.2841 8.94554L22.204 8.55322C21.9473 7.95142 21.5403 7.465 20.9732 6.96188C20.4142 6.46584 19.6676 5.92673 18.712 5.23587L18.1261 6.04625ZM21.2842 8.94554C21.4614 9.36105 21.5241 9.82006 21.4923 10.4776C21.4599 11.1471 21.3327 11.9787 21.1547 13.1376L22.1431 13.2894C22.318 12.151 22.4556 11.2596 22.4911 10.526C22.5272 9.78036 22.4611 9.15596 22.204 8.55322L21.2842 8.94554ZM21.1547 13.1376L20.8537 15.0965L21.8421 15.2483L22.1431 13.2894L21.1547 13.1376ZM20.8537 15.0964C20.6014 16.7379 20.4185 17.9212 20.1586 18.8183C19.903 19.7002 19.5886 20.2457 19.1095 20.6442L19.749 21.413C20.4378 20.8401 20.8325 20.0857 21.1191 19.0966C21.4013 18.1225 21.5938 16.8634 21.8421 15.2484L20.8537 15.0964ZM19.1095 20.6442C18.6284 21.0444 18.0165 21.2668 17.0665 21.3822C16.1039 21.4991 14.859 21.5 13.1391 21.5V22.5C14.8339 22.5 16.1502 22.5009 17.187 22.3749C18.2364 22.2475 19.0622 21.9842 19.749 21.413L19.1095 20.6442ZM13.1391 21.5H10.8615V22.5H13.1391V21.5ZM10.8615 21.5C9.14149 21.5 7.8966 21.4991 6.93403 21.3822C5.98396 21.2668 5.37212 21.0444 4.89097 20.6442L4.25151 21.413C4.93828 21.9842 5.76411 22.2475 6.81345 22.3749C7.85029 22.5009 9.16655 22.5 10.8615 22.5V21.5ZM4.89097 20.6442C4.41189 20.2457 4.09747 19.7002 3.8419 18.8183C3.58196 17.9212 3.39913 16.7379 3.14687 15.0965L2.15848 15.2483C2.40666 16.8634 2.59916 18.1225 2.88141 19.0966C3.16804 20.0857 3.56269 20.8401 4.25151 21.413L4.89097 20.6442ZM3.14687 15.0965L2.84583 13.1376L1.85744 13.2894L2.15848 15.2483L3.14687 15.0965Z" fill="#464E5F"/>
</svg>
